<svg id="Layer_1" enable-background="new 0 0 512 512" height="512" viewBox="0 0 512 512" width="512" xmlns="http://www.w3.org/2000/svg"><circle cx="212.671" cy="180.826" r="15.03"/><circle cx="299.329" cy="180.826" r="15.03"/><path d="m296.386 243.3h-80.773c-8.284 0-15 6.716-15 15 0 30.54 24.847 55.386 55.387 55.386s55.387-24.846 55.387-55.386c-.001-8.284-6.717-15-15.001-15zm-40.387 40.386c-8.392 0-15.845-4.092-20.47-10.386h40.939c-4.624 6.294-12.077 10.386-20.469 10.386z"/><path d="m417.764 356.972c-19.536-6.166-64.572-15.966-86.234-20.555v-1.179c13.729-12.682 23.943-24.887 31.818-37.835 4.769-7.838 8.611-15.874 11.605-24.245h4.103c33.724 0 61.16-27.436 61.16-61.16 0-32.415-25.352-59.006-57.267-61.023l.001-35.534c43.768-12.421 75.921-52.746 75.921-100.44 0-8.284-6.716-15-15-15h-210.43c-57.558 0-104.385 46.827-104.385 104.385l.002 46.589c-31.915 2.017-57.266 28.608-57.266 61.023 0 21.775 11.448 40.916 28.632 51.756v42.83c0 8.284 6.716 15 15 15s15-6.716 15-15v-33.489c.839.034 1.68.064 2.527.064h4.105c2.993 8.375 6.834 16.41 11.599 24.243 7.875 12.947 18.086 25.15 31.812 37.829v1.187c-21.662 4.59-66.697 14.39-86.232 20.555-37.646 11.882-61.971 42.103-61.971 76.991v63.036c0 8.284 6.716 15 15 15h417.469c8.284 0 15-6.716 15-15v-63.037c.001-34.889-24.324-65.109-61.969-76.991zm-116.235 2.537v14.931c0 25.105-20.425 45.53-45.53 45.53s-45.53-20.425-45.53-45.53v-14.937c13.448 8.725 29.393 13.487 45.534 13.487 16.138 0 32.08-4.759 45.526-13.481zm-91.06 75.147c12.669 9.603 28.443 15.314 45.53 15.314s32.861-5.711 45.53-15.314v47.344h-91.061v-47.344zm199.747-222.659c0 16.229-12.473 29.593-28.334 31.026.746-6.5 1.1-13.244 1.065-20.29l.002-41.644c15.349 1.922 27.267 15.045 27.267 30.908zm-176.774-181.997h193.91c-6.959 33.85-36.986 59.385-72.865 59.385h-193.91c6.959-33.851 36.986-59.385 72.865-59.385zm-112.127 210.894c-.066-.028-.135-.052-.202-.08-11.325-4.671-19.319-15.826-19.319-28.817 0-15.862 11.917-28.985 27.266-30.908v41.489c-.036 7.106.32 13.902 1.072 20.446-3.09-.279-6.051-1.012-8.817-2.13zm37.746-18.241-.003-103.268h193.892l-.004 103.422c.115 22.989-4.724 41.737-15.229 59.004-10.017 16.469-25.242 31.991-49.367 50.332-9.201 6.995-20.689 10.848-32.348 10.848-11.827 0-23.012-3.751-32.347-10.848-24.125-18.34-39.351-33.863-49.368-50.333-10.504-17.268-15.342-36.041-15.226-59.157zm-96.795 211.31c0-26.131 21.18-42.126 41-48.382 16.507-5.21 54.511-13.623 77.203-18.486v7.345 107.56h-118.203zm387.468 48.037h-118.205v-107.56-7.345c22.693 4.863 60.698 13.276 77.205 18.486 19.82 6.256 41 22.251 41 48.382z"/></svg>